<mxfile host="Electron" agent="Mozilla/5.0 (Macintosh; Intel Mac OS X 10_15_7) AppleWebKit/537.36 (KHTML, like Gecko) draw.io/26.0.4 Chrome/128.0.6613.186 Electron/32.2.5 Safari/537.36" version="26.0.4" pages="2">
  <diagram id="EUAEzbg7YIRV5ZJzyMKm" name="Data-flow">
    <mxGraphModel dx="1485" dy="1057" grid="1" gridSize="10" guides="1" tooltips="1" connect="1" arrows="1" fold="1" page="1" pageScale="1" pageWidth="850" pageHeight="1100" math="0" shadow="0">
      <root>
        <mxCell id="0" />
        <mxCell id="1" parent="0" />
        <mxCell id="d36dsUssVrrHlh2OfQhF-3" style="edgeStyle=orthogonalEdgeStyle;rounded=0;orthogonalLoop=1;jettySize=auto;html=1;" edge="1" parent="1" source="d36dsUssVrrHlh2OfQhF-1" target="d36dsUssVrrHlh2OfQhF-2">
          <mxGeometry relative="1" as="geometry" />
        </mxCell>
        <mxCell id="d36dsUssVrrHlh2OfQhF-4" value="&lt;font style=&quot;font-size: 10px;&quot;&gt;Передает персональные данные&lt;/font&gt;" style="edgeLabel;html=1;align=center;verticalAlign=middle;resizable=0;points=[];" vertex="1" connectable="0" parent="d36dsUssVrrHlh2OfQhF-3">
          <mxGeometry x="0.4246" y="3" relative="1" as="geometry">
            <mxPoint x="-44" y="13" as="offset" />
          </mxGeometry>
        </mxCell>
        <mxCell id="d36dsUssVrrHlh2OfQhF-1" value="Пациент" style="shape=umlActor;verticalLabelPosition=bottom;verticalAlign=top;html=1;outlineConnect=0;" vertex="1" parent="1">
          <mxGeometry x="280" y="350" width="30" height="60" as="geometry" />
        </mxCell>
        <mxCell id="d36dsUssVrrHlh2OfQhF-6" style="edgeStyle=orthogonalEdgeStyle;rounded=0;orthogonalLoop=1;jettySize=auto;html=1;" edge="1" parent="1" source="d36dsUssVrrHlh2OfQhF-2" target="d36dsUssVrrHlh2OfQhF-5">
          <mxGeometry relative="1" as="geometry" />
        </mxCell>
        <mxCell id="d36dsUssVrrHlh2OfQhF-7" value="Сохраняет данные в excel файл" style="edgeLabel;html=1;align=center;verticalAlign=middle;resizable=0;points=[];fontSize=10;" vertex="1" connectable="0" parent="d36dsUssVrrHlh2OfQhF-6">
          <mxGeometry x="0.4999" y="2" relative="1" as="geometry">
            <mxPoint x="-48" y="12" as="offset" />
          </mxGeometry>
        </mxCell>
        <mxCell id="d36dsUssVrrHlh2OfQhF-2" value="Сотрудник&lt;br&gt;ресепшена" style="shape=umlActor;verticalLabelPosition=bottom;verticalAlign=top;html=1;outlineConnect=0;" vertex="1" parent="1">
          <mxGeometry x="540" y="350" width="30" height="60" as="geometry" />
        </mxCell>
        <mxCell id="d36dsUssVrrHlh2OfQhF-5" value="Общий диск компании" style="rounded=0;whiteSpace=wrap;html=1;" vertex="1" parent="1">
          <mxGeometry x="780" y="350" width="120" height="60" as="geometry" />
        </mxCell>
        <mxCell id="d36dsUssVrrHlh2OfQhF-8" value="Регистрация пациента и запись на прием:" style="text;html=1;align=center;verticalAlign=middle;whiteSpace=wrap;rounded=0;" vertex="1" parent="1">
          <mxGeometry x="250" y="290" width="270" height="30" as="geometry" />
        </mxCell>
        <mxCell id="d36dsUssVrrHlh2OfQhF-9" style="edgeStyle=orthogonalEdgeStyle;rounded=0;orthogonalLoop=1;jettySize=auto;html=1;" edge="1" parent="1" source="d36dsUssVrrHlh2OfQhF-11" target="d36dsUssVrrHlh2OfQhF-14">
          <mxGeometry relative="1" as="geometry" />
        </mxCell>
        <mxCell id="d36dsUssVrrHlh2OfQhF-10" value="&lt;span style=&quot;font-size: 10px;&quot;&gt;Оплачивает услуги&lt;/span&gt;" style="edgeLabel;html=1;align=center;verticalAlign=middle;resizable=0;points=[];" vertex="1" connectable="0" parent="d36dsUssVrrHlh2OfQhF-9">
          <mxGeometry x="0.4246" y="3" relative="1" as="geometry">
            <mxPoint x="-44" y="13" as="offset" />
          </mxGeometry>
        </mxCell>
        <mxCell id="d36dsUssVrrHlh2OfQhF-11" value="Пациент" style="shape=umlActor;verticalLabelPosition=bottom;verticalAlign=top;html=1;outlineConnect=0;" vertex="1" parent="1">
          <mxGeometry x="280" y="550" width="30" height="60" as="geometry" />
        </mxCell>
        <mxCell id="d36dsUssVrrHlh2OfQhF-12" style="edgeStyle=orthogonalEdgeStyle;rounded=0;orthogonalLoop=1;jettySize=auto;html=1;" edge="1" parent="1" source="d36dsUssVrrHlh2OfQhF-14" target="d36dsUssVrrHlh2OfQhF-15">
          <mxGeometry relative="1" as="geometry">
            <Array as="points">
              <mxPoint x="710" y="580" />
              <mxPoint x="710" y="520" />
            </Array>
          </mxGeometry>
        </mxCell>
        <mxCell id="d36dsUssVrrHlh2OfQhF-20" style="edgeStyle=orthogonalEdgeStyle;rounded=0;orthogonalLoop=1;jettySize=auto;html=1;entryX=0;entryY=0.5;entryDx=0;entryDy=0;" edge="1" parent="1" source="d36dsUssVrrHlh2OfQhF-14" target="d36dsUssVrrHlh2OfQhF-19">
          <mxGeometry relative="1" as="geometry">
            <Array as="points">
              <mxPoint x="710" y="580" />
              <mxPoint x="710" y="630" />
            </Array>
          </mxGeometry>
        </mxCell>
        <mxCell id="d36dsUssVrrHlh2OfQhF-21" value="Регистрирует платеж" style="edgeLabel;html=1;align=center;verticalAlign=middle;resizable=0;points=[];fontSize=10;" vertex="1" connectable="0" parent="d36dsUssVrrHlh2OfQhF-20">
          <mxGeometry x="0.4353" relative="1" as="geometry">
            <mxPoint x="-67" y="-37" as="offset" />
          </mxGeometry>
        </mxCell>
        <mxCell id="d36dsUssVrrHlh2OfQhF-14" value="Кассир" style="shape=umlActor;verticalLabelPosition=bottom;verticalAlign=top;html=1;outlineConnect=0;" vertex="1" parent="1">
          <mxGeometry x="540" y="550" width="30" height="60" as="geometry" />
        </mxCell>
        <mxCell id="d36dsUssVrrHlh2OfQhF-15" value="Общий диск компании" style="rounded=0;whiteSpace=wrap;html=1;" vertex="1" parent="1">
          <mxGeometry x="780" y="490" width="120" height="60" as="geometry" />
        </mxCell>
        <mxCell id="d36dsUssVrrHlh2OfQhF-16" value="Оплата услуг" style="text;html=1;align=left;verticalAlign=middle;whiteSpace=wrap;rounded=0;" vertex="1" parent="1">
          <mxGeometry x="260" y="490" width="270" height="30" as="geometry" />
        </mxCell>
        <mxCell id="d36dsUssVrrHlh2OfQhF-23" style="edgeStyle=orthogonalEdgeStyle;rounded=0;orthogonalLoop=1;jettySize=auto;html=1;" edge="1" parent="1" source="d36dsUssVrrHlh2OfQhF-19" target="d36dsUssVrrHlh2OfQhF-22">
          <mxGeometry relative="1" as="geometry" />
        </mxCell>
        <mxCell id="d36dsUssVrrHlh2OfQhF-24" value="платежные &lt;br&gt;данные" style="edgeLabel;html=1;align=center;verticalAlign=middle;resizable=0;points=[];fontColor=default;labelBackgroundColor=none;fontSize=10;" vertex="1" connectable="0" parent="d36dsUssVrrHlh2OfQhF-23">
          <mxGeometry x="-0.085" y="-3" relative="1" as="geometry">
            <mxPoint y="-3" as="offset" />
          </mxGeometry>
        </mxCell>
        <mxCell id="d36dsUssVrrHlh2OfQhF-19" value="ККМ" style="rounded=0;whiteSpace=wrap;html=1;" vertex="1" parent="1">
          <mxGeometry x="780" y="600" width="120" height="60" as="geometry" />
        </mxCell>
        <mxCell id="d36dsUssVrrHlh2OfQhF-22" value="1С бухгалтерия" style="rounded=0;whiteSpace=wrap;html=1;" vertex="1" parent="1">
          <mxGeometry x="1000" y="600" width="120" height="60" as="geometry" />
        </mxCell>
        <mxCell id="d36dsUssVrrHlh2OfQhF-25" style="edgeStyle=orthogonalEdgeStyle;rounded=0;orthogonalLoop=1;jettySize=auto;html=1;exitX=1;exitY=0.5;exitDx=0;exitDy=0;" edge="1" parent="1" source="d36dsUssVrrHlh2OfQhF-38" target="d36dsUssVrrHlh2OfQhF-31">
          <mxGeometry relative="1" as="geometry">
            <mxPoint x="310" y="830" as="sourcePoint" />
          </mxGeometry>
        </mxCell>
        <mxCell id="d36dsUssVrrHlh2OfQhF-26" value="&lt;span style=&quot;font-size: 10px;&quot;&gt;Данные анализов&lt;/span&gt;" style="edgeLabel;html=1;align=center;verticalAlign=middle;resizable=0;points=[];" vertex="1" connectable="0" parent="d36dsUssVrrHlh2OfQhF-25">
          <mxGeometry x="0.4246" y="3" relative="1" as="geometry">
            <mxPoint x="-44" y="13" as="offset" />
          </mxGeometry>
        </mxCell>
        <mxCell id="d36dsUssVrrHlh2OfQhF-44" style="edgeStyle=orthogonalEdgeStyle;rounded=0;orthogonalLoop=1;jettySize=auto;html=1;" edge="1" parent="1" source="d36dsUssVrrHlh2OfQhF-31" target="d36dsUssVrrHlh2OfQhF-43">
          <mxGeometry relative="1" as="geometry" />
        </mxCell>
        <mxCell id="d36dsUssVrrHlh2OfQhF-31" value="Сотрудник" style="shape=umlActor;verticalLabelPosition=bottom;verticalAlign=top;html=1;outlineConnect=0;" vertex="1" parent="1">
          <mxGeometry x="540" y="800" width="30" height="60" as="geometry" />
        </mxCell>
        <mxCell id="d36dsUssVrrHlh2OfQhF-33" value="Обработка анализов:" style="text;html=1;align=left;verticalAlign=middle;whiteSpace=wrap;rounded=0;" vertex="1" parent="1">
          <mxGeometry x="260" y="740" width="270" height="30" as="geometry" />
        </mxCell>
        <mxCell id="d36dsUssVrrHlh2OfQhF-38" value="Лаборатория" style="rounded=0;whiteSpace=wrap;html=1;" vertex="1" parent="1">
          <mxGeometry x="260" y="800" width="120" height="60" as="geometry" />
        </mxCell>
        <mxCell id="d36dsUssVrrHlh2OfQhF-43" value="Общий диск компании" style="rounded=0;whiteSpace=wrap;html=1;" vertex="1" parent="1">
          <mxGeometry x="780" y="800" width="120" height="60" as="geometry" />
        </mxCell>
        <mxCell id="d36dsUssVrrHlh2OfQhF-45" value="Сохраняет данные в excel файл" style="edgeLabel;html=1;align=center;verticalAlign=middle;resizable=0;points=[];fontSize=10;" vertex="1" connectable="0" parent="1">
          <mxGeometry x="659.9999999999999" y="840" as="geometry">
            <mxPoint x="2" y="-2" as="offset" />
          </mxGeometry>
        </mxCell>
        <mxCell id="d36dsUssVrrHlh2OfQhF-62" style="edgeStyle=orthogonalEdgeStyle;rounded=0;orthogonalLoop=1;jettySize=auto;html=1;entryX=0;entryY=0.5;entryDx=0;entryDy=0;" edge="1" parent="1" source="d36dsUssVrrHlh2OfQhF-56" target="d36dsUssVrrHlh2OfQhF-60">
          <mxGeometry relative="1" as="geometry" />
        </mxCell>
        <mxCell id="d36dsUssVrrHlh2OfQhF-63" value="Ведет учет ТМЦ" style="edgeLabel;html=1;align=center;verticalAlign=middle;resizable=0;points=[];" vertex="1" connectable="0" parent="d36dsUssVrrHlh2OfQhF-62">
          <mxGeometry x="-0.2238" relative="1" as="geometry">
            <mxPoint x="13" y="10" as="offset" />
          </mxGeometry>
        </mxCell>
        <mxCell id="d36dsUssVrrHlh2OfQhF-56" value="Сотрудник склада" style="shape=umlActor;verticalLabelPosition=bottom;verticalAlign=top;html=1;outlineConnect=0;" vertex="1" parent="1">
          <mxGeometry x="280" y="1020" width="30" height="60" as="geometry" />
        </mxCell>
        <mxCell id="VBzfOYtmT7gE-gi_MHKm-2" style="edgeStyle=orthogonalEdgeStyle;rounded=0;orthogonalLoop=1;jettySize=auto;html=1;entryX=0;entryY=0.5;entryDx=0;entryDy=0;" edge="1" parent="1" source="d36dsUssVrrHlh2OfQhF-60" target="VBzfOYtmT7gE-gi_MHKm-1">
          <mxGeometry relative="1" as="geometry" />
        </mxCell>
        <mxCell id="VBzfOYtmT7gE-gi_MHKm-3" value="Обмен данными" style="edgeLabel;html=1;align=center;verticalAlign=middle;resizable=0;points=[];" vertex="1" connectable="0" parent="VBzfOYtmT7gE-gi_MHKm-2">
          <mxGeometry x="0.3042" y="1" relative="1" as="geometry">
            <mxPoint x="-22" y="11" as="offset" />
          </mxGeometry>
        </mxCell>
        <mxCell id="d36dsUssVrrHlh2OfQhF-60" value="1С Торговля и склад" style="rounded=0;whiteSpace=wrap;html=1;" vertex="1" parent="1">
          <mxGeometry x="495" y="1020" width="120" height="60" as="geometry" />
        </mxCell>
        <mxCell id="d36dsUssVrrHlh2OfQhF-61" value="Учет ТМЦ:" style="text;html=1;align=left;verticalAlign=middle;whiteSpace=wrap;rounded=0;" vertex="1" parent="1">
          <mxGeometry x="250" y="960" width="270" height="30" as="geometry" />
        </mxCell>
        <mxCell id="VBzfOYtmT7gE-gi_MHKm-1" value="1С бухгалтерия" style="rounded=0;whiteSpace=wrap;html=1;" vertex="1" parent="1">
          <mxGeometry x="780" y="1020" width="120" height="60" as="geometry" />
        </mxCell>
      </root>
    </mxGraphModel>
  </diagram>
  <diagram id="L8XbZwH8zEB2dOOv4Mzf" name="Data-flow-upgrade">
    <mxGraphModel dx="1061" dy="755" grid="1" gridSize="10" guides="1" tooltips="1" connect="1" arrows="1" fold="1" page="1" pageScale="1" pageWidth="850" pageHeight="1100" math="0" shadow="0">
      <root>
        <mxCell id="0" />
        <mxCell id="1" parent="0" />
        <mxCell id="LCcVs43nCDZj6Z5y3u2--1" style="edgeStyle=orthogonalEdgeStyle;rounded=0;orthogonalLoop=1;jettySize=auto;html=1;" edge="1" parent="1" source="LCcVs43nCDZj6Z5y3u2--3" target="LCcVs43nCDZj6Z5y3u2--6">
          <mxGeometry relative="1" as="geometry" />
        </mxCell>
        <mxCell id="LCcVs43nCDZj6Z5y3u2--2" value="&lt;font style=&quot;font-size: 10px;&quot;&gt;Передает персональные данные&lt;/font&gt;" style="edgeLabel;html=1;align=center;verticalAlign=middle;resizable=0;points=[];" vertex="1" connectable="0" parent="LCcVs43nCDZj6Z5y3u2--1">
          <mxGeometry x="0.4246" y="3" relative="1" as="geometry">
            <mxPoint x="-44" y="13" as="offset" />
          </mxGeometry>
        </mxCell>
        <mxCell id="LCcVs43nCDZj6Z5y3u2--3" value="Пациент" style="shape=umlActor;verticalLabelPosition=bottom;verticalAlign=top;html=1;outlineConnect=0;" vertex="1" parent="1">
          <mxGeometry x="280" y="350" width="30" height="60" as="geometry" />
        </mxCell>
        <mxCell id="LCcVs43nCDZj6Z5y3u2--4" style="edgeStyle=orthogonalEdgeStyle;rounded=0;orthogonalLoop=1;jettySize=auto;html=1;" edge="1" parent="1" source="LCcVs43nCDZj6Z5y3u2--6" target="LCcVs43nCDZj6Z5y3u2--7">
          <mxGeometry relative="1" as="geometry" />
        </mxCell>
        <mxCell id="LCcVs43nCDZj6Z5y3u2--5" value="Сохраняет данные в excel файл" style="edgeLabel;html=1;align=center;verticalAlign=middle;resizable=0;points=[];fontSize=10;" vertex="1" connectable="0" parent="LCcVs43nCDZj6Z5y3u2--4">
          <mxGeometry x="0.4999" y="2" relative="1" as="geometry">
            <mxPoint x="-48" y="12" as="offset" />
          </mxGeometry>
        </mxCell>
        <mxCell id="LCcVs43nCDZj6Z5y3u2--6" value="Сотрудник&lt;br&gt;ресепшена" style="shape=umlActor;verticalLabelPosition=bottom;verticalAlign=top;html=1;outlineConnect=0;" vertex="1" parent="1">
          <mxGeometry x="540" y="350" width="30" height="60" as="geometry" />
        </mxCell>
        <mxCell id="LCcVs43nCDZj6Z5y3u2--7" value="Общий диск компании" style="rounded=0;whiteSpace=wrap;html=1;" vertex="1" parent="1">
          <mxGeometry x="780" y="350" width="120" height="60" as="geometry" />
        </mxCell>
        <mxCell id="LCcVs43nCDZj6Z5y3u2--8" value="Регистрация пациента и запись на прием:" style="text;html=1;align=center;verticalAlign=middle;whiteSpace=wrap;rounded=0;" vertex="1" parent="1">
          <mxGeometry x="250" y="290" width="270" height="30" as="geometry" />
        </mxCell>
        <mxCell id="LCcVs43nCDZj6Z5y3u2--9" style="edgeStyle=orthogonalEdgeStyle;rounded=0;orthogonalLoop=1;jettySize=auto;html=1;" edge="1" parent="1" source="LCcVs43nCDZj6Z5y3u2--11" target="LCcVs43nCDZj6Z5y3u2--15">
          <mxGeometry relative="1" as="geometry" />
        </mxCell>
        <mxCell id="LCcVs43nCDZj6Z5y3u2--10" value="&lt;span style=&quot;font-size: 10px;&quot;&gt;Оплачивает услуги&lt;/span&gt;" style="edgeLabel;html=1;align=center;verticalAlign=middle;resizable=0;points=[];" vertex="1" connectable="0" parent="LCcVs43nCDZj6Z5y3u2--9">
          <mxGeometry x="0.4246" y="3" relative="1" as="geometry">
            <mxPoint x="-44" y="13" as="offset" />
          </mxGeometry>
        </mxCell>
        <mxCell id="LCcVs43nCDZj6Z5y3u2--11" value="Пациент" style="shape=umlActor;verticalLabelPosition=bottom;verticalAlign=top;html=1;outlineConnect=0;" vertex="1" parent="1">
          <mxGeometry x="280" y="550" width="30" height="60" as="geometry" />
        </mxCell>
        <mxCell id="LCcVs43nCDZj6Z5y3u2--12" style="edgeStyle=orthogonalEdgeStyle;rounded=0;orthogonalLoop=1;jettySize=auto;html=1;" edge="1" parent="1" source="LCcVs43nCDZj6Z5y3u2--15" target="LCcVs43nCDZj6Z5y3u2--16">
          <mxGeometry relative="1" as="geometry">
            <Array as="points">
              <mxPoint x="710" y="580" />
              <mxPoint x="710" y="520" />
            </Array>
          </mxGeometry>
        </mxCell>
        <mxCell id="LCcVs43nCDZj6Z5y3u2--13" style="edgeStyle=orthogonalEdgeStyle;rounded=0;orthogonalLoop=1;jettySize=auto;html=1;entryX=0;entryY=0.5;entryDx=0;entryDy=0;" edge="1" parent="1" source="LCcVs43nCDZj6Z5y3u2--15" target="LCcVs43nCDZj6Z5y3u2--20">
          <mxGeometry relative="1" as="geometry">
            <Array as="points">
              <mxPoint x="710" y="580" />
              <mxPoint x="710" y="630" />
            </Array>
          </mxGeometry>
        </mxCell>
        <mxCell id="LCcVs43nCDZj6Z5y3u2--14" value="Регистрирует платеж" style="edgeLabel;html=1;align=center;verticalAlign=middle;resizable=0;points=[];fontSize=10;" vertex="1" connectable="0" parent="LCcVs43nCDZj6Z5y3u2--13">
          <mxGeometry x="0.4353" relative="1" as="geometry">
            <mxPoint x="-67" y="-37" as="offset" />
          </mxGeometry>
        </mxCell>
        <mxCell id="LCcVs43nCDZj6Z5y3u2--15" value="Кассир" style="shape=umlActor;verticalLabelPosition=bottom;verticalAlign=top;html=1;outlineConnect=0;" vertex="1" parent="1">
          <mxGeometry x="540" y="550" width="30" height="60" as="geometry" />
        </mxCell>
        <mxCell id="LCcVs43nCDZj6Z5y3u2--16" value="Общий диск компании" style="rounded=0;whiteSpace=wrap;html=1;" vertex="1" parent="1">
          <mxGeometry x="780" y="490" width="120" height="60" as="geometry" />
        </mxCell>
        <mxCell id="LCcVs43nCDZj6Z5y3u2--17" value="Оплата услуг" style="text;html=1;align=left;verticalAlign=middle;whiteSpace=wrap;rounded=0;" vertex="1" parent="1">
          <mxGeometry x="260" y="490" width="270" height="30" as="geometry" />
        </mxCell>
        <mxCell id="LCcVs43nCDZj6Z5y3u2--18" style="edgeStyle=orthogonalEdgeStyle;rounded=0;orthogonalLoop=1;jettySize=auto;html=1;" edge="1" parent="1" source="LCcVs43nCDZj6Z5y3u2--20" target="LCcVs43nCDZj6Z5y3u2--21">
          <mxGeometry relative="1" as="geometry" />
        </mxCell>
        <mxCell id="LCcVs43nCDZj6Z5y3u2--19" value="платежные &lt;br&gt;данные" style="edgeLabel;html=1;align=center;verticalAlign=middle;resizable=0;points=[];fontColor=default;labelBackgroundColor=none;fontSize=10;" vertex="1" connectable="0" parent="LCcVs43nCDZj6Z5y3u2--18">
          <mxGeometry x="-0.085" y="-3" relative="1" as="geometry">
            <mxPoint y="-3" as="offset" />
          </mxGeometry>
        </mxCell>
        <mxCell id="LCcVs43nCDZj6Z5y3u2--20" value="ККМ" style="rounded=0;whiteSpace=wrap;html=1;" vertex="1" parent="1">
          <mxGeometry x="780" y="600" width="120" height="60" as="geometry" />
        </mxCell>
        <mxCell id="LCcVs43nCDZj6Z5y3u2--21" value="1С бухгалтерия" style="rounded=0;whiteSpace=wrap;html=1;" vertex="1" parent="1">
          <mxGeometry x="1000" y="600" width="120" height="60" as="geometry" />
        </mxCell>
        <mxCell id="LCcVs43nCDZj6Z5y3u2--22" style="edgeStyle=orthogonalEdgeStyle;rounded=0;orthogonalLoop=1;jettySize=auto;html=1;exitX=1;exitY=0.5;exitDx=0;exitDy=0;" edge="1" parent="1" source="LCcVs43nCDZj6Z5y3u2--27" target="LCcVs43nCDZj6Z5y3u2--25">
          <mxGeometry relative="1" as="geometry">
            <mxPoint x="310" y="830" as="sourcePoint" />
          </mxGeometry>
        </mxCell>
        <mxCell id="LCcVs43nCDZj6Z5y3u2--23" value="&lt;span style=&quot;font-size: 10px;&quot;&gt;Данные анализов&lt;/span&gt;" style="edgeLabel;html=1;align=center;verticalAlign=middle;resizable=0;points=[];" vertex="1" connectable="0" parent="LCcVs43nCDZj6Z5y3u2--22">
          <mxGeometry x="0.4246" y="3" relative="1" as="geometry">
            <mxPoint x="-44" y="13" as="offset" />
          </mxGeometry>
        </mxCell>
        <mxCell id="LCcVs43nCDZj6Z5y3u2--24" style="edgeStyle=orthogonalEdgeStyle;rounded=0;orthogonalLoop=1;jettySize=auto;html=1;" edge="1" parent="1" source="LCcVs43nCDZj6Z5y3u2--25" target="LCcVs43nCDZj6Z5y3u2--28">
          <mxGeometry relative="1" as="geometry" />
        </mxCell>
        <mxCell id="LCcVs43nCDZj6Z5y3u2--25" value="Сотрудник" style="shape=umlActor;verticalLabelPosition=bottom;verticalAlign=top;html=1;outlineConnect=0;" vertex="1" parent="1">
          <mxGeometry x="540" y="800" width="30" height="60" as="geometry" />
        </mxCell>
        <mxCell id="LCcVs43nCDZj6Z5y3u2--26" value="Обработка анализов:" style="text;html=1;align=left;verticalAlign=middle;whiteSpace=wrap;rounded=0;" vertex="1" parent="1">
          <mxGeometry x="260" y="740" width="270" height="30" as="geometry" />
        </mxCell>
        <mxCell id="LCcVs43nCDZj6Z5y3u2--27" value="Лаборатория" style="rounded=0;whiteSpace=wrap;html=1;" vertex="1" parent="1">
          <mxGeometry x="260" y="800" width="120" height="60" as="geometry" />
        </mxCell>
        <mxCell id="LCcVs43nCDZj6Z5y3u2--28" value="Общий диск компании" style="rounded=0;whiteSpace=wrap;html=1;" vertex="1" parent="1">
          <mxGeometry x="780" y="800" width="120" height="60" as="geometry" />
        </mxCell>
        <mxCell id="LCcVs43nCDZj6Z5y3u2--29" value="Сохраняет данные в excel файл" style="edgeLabel;html=1;align=center;verticalAlign=middle;resizable=0;points=[];fontSize=10;" vertex="1" connectable="0" parent="1">
          <mxGeometry x="659.9999999999999" y="840" as="geometry">
            <mxPoint x="2" y="-2" as="offset" />
          </mxGeometry>
        </mxCell>
        <mxCell id="LCcVs43nCDZj6Z5y3u2--30" style="edgeStyle=orthogonalEdgeStyle;rounded=0;orthogonalLoop=1;jettySize=auto;html=1;entryX=0;entryY=0.5;entryDx=0;entryDy=0;" edge="1" parent="1" source="LCcVs43nCDZj6Z5y3u2--32" target="LCcVs43nCDZj6Z5y3u2--35">
          <mxGeometry relative="1" as="geometry" />
        </mxCell>
        <mxCell id="LCcVs43nCDZj6Z5y3u2--31" value="Ведет учет ТМЦ" style="edgeLabel;html=1;align=center;verticalAlign=middle;resizable=0;points=[];" vertex="1" connectable="0" parent="LCcVs43nCDZj6Z5y3u2--30">
          <mxGeometry x="-0.2238" relative="1" as="geometry">
            <mxPoint x="13" y="10" as="offset" />
          </mxGeometry>
        </mxCell>
        <mxCell id="LCcVs43nCDZj6Z5y3u2--32" value="Сотрудник склада" style="shape=umlActor;verticalLabelPosition=bottom;verticalAlign=top;html=1;outlineConnect=0;" vertex="1" parent="1">
          <mxGeometry x="280" y="1020" width="30" height="60" as="geometry" />
        </mxCell>
        <mxCell id="LCcVs43nCDZj6Z5y3u2--33" style="edgeStyle=orthogonalEdgeStyle;rounded=0;orthogonalLoop=1;jettySize=auto;html=1;entryX=0;entryY=0.5;entryDx=0;entryDy=0;" edge="1" parent="1" source="LCcVs43nCDZj6Z5y3u2--35" target="LCcVs43nCDZj6Z5y3u2--37">
          <mxGeometry relative="1" as="geometry" />
        </mxCell>
        <mxCell id="LCcVs43nCDZj6Z5y3u2--34" value="Обмен данными" style="edgeLabel;html=1;align=center;verticalAlign=middle;resizable=0;points=[];" vertex="1" connectable="0" parent="LCcVs43nCDZj6Z5y3u2--33">
          <mxGeometry x="0.3042" y="1" relative="1" as="geometry">
            <mxPoint x="-22" y="11" as="offset" />
          </mxGeometry>
        </mxCell>
        <mxCell id="LCcVs43nCDZj6Z5y3u2--35" value="1С Торговля и склад" style="rounded=0;whiteSpace=wrap;html=1;" vertex="1" parent="1">
          <mxGeometry x="495" y="1020" width="120" height="60" as="geometry" />
        </mxCell>
        <mxCell id="LCcVs43nCDZj6Z5y3u2--36" value="Учет ТМЦ:" style="text;html=1;align=left;verticalAlign=middle;whiteSpace=wrap;rounded=0;" vertex="1" parent="1">
          <mxGeometry x="250" y="960" width="270" height="30" as="geometry" />
        </mxCell>
        <mxCell id="LCcVs43nCDZj6Z5y3u2--37" value="1С бухгалтерия" style="rounded=0;whiteSpace=wrap;html=1;" vertex="1" parent="1">
          <mxGeometry x="780" y="1020" width="120" height="60" as="geometry" />
        </mxCell>
        <mxCell id="LCcVs43nCDZj6Z5y3u2--38" value="&lt;span style=&quot;font-size: 10px;&quot;&gt;Данные тегриуются&lt;/span&gt;" style="text;html=1;align=center;verticalAlign=middle;whiteSpace=wrap;rounded=0;fontColor=#FF0000;" vertex="1" parent="1">
          <mxGeometry x="570" y="600" width="155" height="30" as="geometry" />
        </mxCell>
        <mxCell id="LCcVs43nCDZj6Z5y3u2--40" value="&lt;span style=&quot;font-size: 10px;&quot;&gt;Диск должен быть зашифрован&lt;/span&gt;" style="text;html=1;align=center;verticalAlign=middle;whiteSpace=wrap;rounded=0;fontColor=#FF0000;" vertex="1" parent="1">
          <mxGeometry x="760" y="410" width="160" height="30" as="geometry" />
        </mxCell>
        <mxCell id="LCcVs43nCDZj6Z5y3u2--41" value="&lt;span style=&quot;font-size: 10px;&quot;&gt;Диск должен быть зашифрован&lt;/span&gt;" style="text;html=1;align=center;verticalAlign=middle;whiteSpace=wrap;rounded=0;fontColor=#FF0000;" vertex="1" parent="1">
          <mxGeometry x="760" y="550" width="160" height="30" as="geometry" />
        </mxCell>
        <mxCell id="LCcVs43nCDZj6Z5y3u2--42" value="&lt;span style=&quot;font-size: 10px;&quot;&gt;Диск должен быть зашифрован TLS/SSL&lt;/span&gt;" style="text;html=1;align=center;verticalAlign=middle;whiteSpace=wrap;rounded=0;fontColor=#FF0000;" vertex="1" parent="1">
          <mxGeometry x="880" y="660" width="160" height="30" as="geometry" />
        </mxCell>
        <mxCell id="LCcVs43nCDZj6Z5y3u2--43" value="&lt;span style=&quot;font-size: 10px;&quot;&gt;Доступ по ролям&lt;/span&gt;" style="text;html=1;align=center;verticalAlign=middle;whiteSpace=wrap;rounded=0;fontColor=#FF0000;" vertex="1" parent="1">
          <mxGeometry x="760" y="430" width="160" height="30" as="geometry" />
        </mxCell>
        <mxCell id="LCcVs43nCDZj6Z5y3u2--44" value="&lt;span style=&quot;font-size: 10px;&quot;&gt;Доступ по ролям&lt;/span&gt;" style="text;html=1;align=center;verticalAlign=middle;whiteSpace=wrap;rounded=0;fontColor=#FF0000;" vertex="1" parent="1">
          <mxGeometry x="750" y="565" width="160" height="30" as="geometry" />
        </mxCell>
        <mxCell id="LCcVs43nCDZj6Z5y3u2--45" value="&lt;span style=&quot;font-size: 10px;&quot;&gt;Диск должен быть зашифрован&lt;/span&gt;" style="text;html=1;align=center;verticalAlign=middle;whiteSpace=wrap;rounded=0;fontColor=#FF0000;" vertex="1" parent="1">
          <mxGeometry x="770" y="860" width="160" height="30" as="geometry" />
        </mxCell>
        <mxCell id="LCcVs43nCDZj6Z5y3u2--46" value="&lt;span style=&quot;font-size: 10px;&quot;&gt;Доступ по ролям&lt;/span&gt;" style="text;html=1;align=center;verticalAlign=middle;whiteSpace=wrap;rounded=0;fontColor=#FF0000;" vertex="1" parent="1">
          <mxGeometry x="760" y="875" width="160" height="30" as="geometry" />
        </mxCell>
        <mxCell id="LCcVs43nCDZj6Z5y3u2--47" value="&lt;span style=&quot;font-size: 10px;&quot;&gt;Данные тегриуются&lt;/span&gt;" style="text;html=1;align=center;verticalAlign=middle;whiteSpace=wrap;rounded=0;fontColor=#FF0000;" vertex="1" parent="1">
          <mxGeometry x="590" y="850" width="155" height="30" as="geometry" />
        </mxCell>
        <mxCell id="LCcVs43nCDZj6Z5y3u2--48" value="&lt;span style=&quot;font-size: 10px;&quot;&gt;Данные тегриуются&lt;/span&gt;" style="text;html=1;align=center;verticalAlign=middle;whiteSpace=wrap;rounded=0;fontColor=#FF0000;" vertex="1" parent="1">
          <mxGeometry x="605" y="400" width="155" height="30" as="geometry" />
        </mxCell>
        <mxCell id="LCcVs43nCDZj6Z5y3u2--49" value="&lt;span style=&quot;font-size: 10px;&quot;&gt;Диск должен быть зашифрован TLS/SSL&lt;/span&gt;" style="text;html=1;align=center;verticalAlign=middle;whiteSpace=wrap;rounded=0;fontColor=#FF0000;" vertex="1" parent="1">
          <mxGeometry x="620" y="1080" width="160" height="30" as="geometry" />
        </mxCell>
      </root>
    </mxGraphModel>
  </diagram>
</mxfile>
